# xmcd CD database file
# Copyright (C) 1993-1996 Ti Kan
#
# Track frame offsets:
#	150
#	15317
#	28877
#	37210
#
# Disc length: 646 seconds
#
# Revision: 1
# Processed by: cddbd v1.4b41PL1 Copyright (c) Steve Scherf et al.
# Submitted via: CDValet v3.30 - Copyright (c) 1997 Greg Leichner
#
DISCID=2b028404
DTITLE=Tom Waits - Goin' Out West
DYEAR=1900
DGENRE=
TTITLE0=Goin' Out West
TTITLE1=A Little Rain
TTITLE2=The Ocean Doesn't Want Me
TTITLE3=Back In the Good Old World (Gypsy)
EXTD=1992 Island Records Inc.
EXTT0=
EXTT1=
EXTT2=
EXTT3=
PLAYORDER=
